<svg xmlns="http://www.w3.org/2000/svg" viewBox="0 0 180.71 115.85"><defs><style>.cls-1{fill:#d6a445;}.cls-2,.cls-3{fill:#d6a446;}.cls-3{font-size:48.51px;font-family:GlamourAbsolute-regular, Glamour Absolute;letter-spacing:-0.03em;}.cls-4{letter-spacing:0em;}</style></defs><g id="Layer_2" data-name="Layer 2"><g id="Layer_1-2" data-name="Layer 1"><path class="cls-1" d="M89,91.69c0-2.27-1.23-4.78-3.07-4.78-1.14,0-2.46.9-3.93,3.22v6.63c-.11,4.22.94,7.15,2.64,7.3l.36,0v1.25H72v-1.42l.26,0c1.83-.34,2.74-3.08,2.74-7.3V91.5c0-2.19-1.09-4.69-2.89-4.69-.88,0-1.93.66-3.11,2.32v7.93c0,3.87,1,6.57,2.52,6.7l.48,0v1.55H59v-.53a6.73,6.73,0,0,1,0-.91l.42,0c1.78-.19,2.76-3.38,2.76-7.77,0-6-.47-7.14-2.76-8.44l-.42-.24a2.22,2.22,0,0,1,0-.49l8.46-3.57H69v3.27c1.24-1.7,4.24-3.5,8.1-3.5,2.81,0,4.28,1.56,4.85,4.21a11.5,11.5,0,0,1,8.91-4.21C94.62,83.12,96,86,96,90.41v8.81c0,4.22.1,5.46.1,6,0,1.59.15,6.26,2.13,6.9,2.54.85,4.18-1.69,5.37-3a2.7,2.7,0,0,1,2-.84,3,3,0,0,1,3,2.33c.4,2.63-1.29,4.22-3.82,4.87a14.46,14.46,0,0,1-3.33.39,11.49,11.49,0,0,1-6.35-1.68c-1.34-.9-6.16-3.38-6.16-10.93Zm7.65,3c0-6.72,4.64-11,12-11s11.89,4.32,11.89,11-4.64,11-11.89,11S96.65,101.45,96.65,94.72Zm12,9.48c2.84,0,4.69-3.7,4.69-9.48s-1.85-9.47-4.69-9.47-4.69,3.69-4.69,9.47S105.79,104.2,108.63,104.2Zm12.61-9.48c0-6.72,4.64-11,12-11s11.89,4.32,11.89,11-4.64,11-11.89,11S121.24,101.45,121.24,94.72Zm12,9.48c2.84,0,4.69-3.7,4.69-9.48s-1.85-9.47-4.69-9.47-4.69,3.69-4.69,9.47S130.38,104.2,133.23,104.2Zm10.77.62a6.73,6.73,0,0,1,.05-.91l.42,0c1.78-.19,2.71-3.38,2.71-7.77,0-6-.42-7.14-2.71-8.44l-.42-.24a2.22,2.22,0,0,1-.05-.49l8.46-3.57H154v6.87c1.35-5.07,5.78-15.35,13.48-15.35,2,0,3.52,1.57,3.52,3.94a2.73,2.73,0,0,1-3.48,2.79,10.32,10.32,0,0,0-3.21-.57C158.09,81,155.65,88,154,93v3.22c0,4.22,1,7.11,2.52,7.3l.44.05a8.29,8.29,0,0,1,0,.9v.91H144Zm27-21.55c5.92,0,9.71,4.36,9.71,11.08l-14.21.24c.62,4.22,2.94,7.53,8.67,7.11,1.23-.1,3.08-1.19,4.64-3.51l.76.67A12.2,12.2,0,0,1,170,105.35c-6.54,0-10.76-3.89-10.76-9.95C159.25,88,163.8,83.27,171,83.27Zm-4.64,10.08h5.49c4.74-.19,3.51-7.86-1.23-7.86C168,85.49,166.26,88.66,166.36,93.35Z"/><path class="cls-1" d="M8.46,58.35H9v3.27c1.23-1.7,4.22-3.5,8.07-3.5,2.75,0,4.22,1.51,4.79,4.12,1.66-1.75,5.5-4.12,9-4.12C34.62,58.12,36,61,36,65.41V71.3a40.11,40.11,0,0,0,1.21,5.4c2.37,4.07,5.78,8.57,10.95,8.57a10.91,10.91,0,0,0,4.26-.94,6.17,6.17,0,0,1,2.23-.48c1.28,0,2.41.52,2.6,1.9a3.91,3.91,0,0,1-3.64,4.64c-6,.81-11.19-3.88-14.5-8.38-4.46-3.32-12.11-2-12.11-2V78.29l.52,0c1.54-.13,2.48-2.79,2.48-6.6V66.19c0-2.28-1.31-4.76-3.27-4.76-1.12,0-2.42.75-3.78,2.8A10.62,10.62,0,0,1,23,65.49V71.3s.62,7.15,2.32,7.29l.68,0v1.71H13V78.93l.26,0c1.83-.34,2.74-3.08,2.74-7.3V66c0-2.19-1.09-4.69-2.89-4.69-.88,0-1.93.66-3.11,2.32V71.6c0,3.87,1,6.57,2.52,6.7l.48,0v2H0v-.53a6.73,6.73,0,0,1,.05-.91l.42,0c1.77-.19,2.76-3.38,2.76-7.77,0-6-.47-7.14-2.76-8.44l-.42-.24a2.22,2.22,0,0,1,0-.49ZM39,79.82a6.73,6.73,0,0,1,0-.91l.42,0c1.77-.19,2.75-3.38,2.75-7.72,0-6-.47-7.19-2.75-8.49l-.42-.24a2.74,2.74,0,0,1,0-.49l8.48-3.57H49V71.19c0,4.22,1,7.11,2.52,7.3l.44.05a8.29,8.29,0,0,1,0,.9v.91H39Zm2.25-28.47a3.68,3.68,0,1,1,7.35,0,3.68,3.68,0,1,1-7.35,0Zm11.4-4c4.47.2,3.58,4.82,8.1,5.56,3.17.75,20.3-6.25,20.3-6.55l0,2.43V61.52a9.43,9.43,0,0,1,7.25-3c3.48,0,4.75,2.64,4.75,6.77v6.34c0,4.22,1,7.11,2.52,7.3l.44,0a8.29,8.29,0,0,1,0,.9v.52H71V78.93l.45,0c1.61-.19,2.55-3.08,2.55-7.3V61.16c0-5.46-.35-7.44-2.08-8.73-5,1.69-11,3.32-15.64,3.32-2.39,0-4.37-.44-5.66-1.49C46.8,51.14,50.67,47.26,52.65,47.36Zm-2,23C50.6,63,55.38,57,63.29,57.61c5,.37,9.24,2.84,8.25,9.28a5.07,5.07,0,0,1-5,4.27,4.28,4.28,0,0,1-3.64-1.66c-1-1.71-.81-3.75.19-4.46a2,2,0,0,1,1.32-.47c1.42,0,2.18,1.94,2.94,1.94.28,0,.52-.23.81-.8.56-1.23,0-5.78-4-5.78a6.17,6.17,0,0,0-1.76.23c-3,.81-4.73,2.94-4.73,7.54,0,5.11,2.74,9.47,8.85,9a6.1,6.1,0,0,0,4.55-3.5l.76.66c-2.23,4.64-7.39,6.49-10.61,6.49C54.72,80.3,50.6,76.41,50.6,70.35ZM84,60.87c-.86,0-1.86.62-3,2.18v8c0,4.22,1,7.11,2.64,7.3l.41,0h.09l.22,0C86,78,87,75.23,87,71V65.94C87,63.62,85.86,60.87,84,60.87Zm22-2.6c5.92,0,9.71,4.36,9.71,11.08l-14.21.24c.61,4.22,2.94,7.53,8.67,7.11,1.23-.1,3.08-1.19,4.64-3.51l.76.67a12.21,12.21,0,0,1-10.56,6.49c-6.54,0-10.76-3.89-10.76-9.95C94.29,63,98.84,58.27,106,58.27ZM101.4,68.35h5.49c4.74-.18,3.51-7.86-1.23-7.86C103,60.49,101.3,63.66,101.4,68.35Zm20.51-20H124V71.52c0,4.25,1,7.16,2.52,7.35l.44,0a8.63,8.63,0,0,1,0,.91v.52H114v-.52a8.63,8.63,0,0,1,0-.91l.4,0c1.56-.19,2.56-3.1,2.56-7.35V61c0-6-.43-7.12-2.56-8.4l-.4-.24a3.35,3.35,0,0,1,0-.48Zm12,0H136V71.52c0,4.25,1,7.16,2.52,7.35l.44,0a8.63,8.63,0,0,1,0,.91v.52H126v-.52a8.63,8.63,0,0,1,0-.91l.4,0c1.56-.19,2.56-3.1,2.56-7.35V61c0-6-.43-7.12-2.56-8.4l-.4-.24a3.35,3.35,0,0,1,0-.48Z"/><path class="cls-1" d="M149.08,58.27c5.92,0,9.76,4.36,9.76,11.08l-14.26.24c.61,4.22,2.94,7.53,8.67,7.11,1.23-.1,8.05-1.57,10.47-7.77,3-9-1.37-15.68-8.81-15.68a14.55,14.55,0,0,0-4.31.66,3.58,3.58,0,0,1-4.51-3.79c.1-2.42,2.52-3.79,4.74-3.74,10.38.23,19.29,11.46,15.26,22.45-4.5,11.28-13.46,11.9-16.77,11.9-6.59,0-11.94-4.27-11.94-10.33C137.38,63,141.93,58.27,149.08,58.27Zm-4.64,10.08h5.49c4.74-.18,3.51-7.86-1.23-7.86C146.05,60.49,144.34,63.66,144.44,68.35Z"/><path class="cls-2" d="M90.83,42.15a9.64,9.64,0,0,1,3.74-.91c3.08,0,4.52,2.34,4,5.64-.26,1.58-1.61,2.54-2.43,2.3-3.78-1.1-.26-5.26-1.48-5.84a1.91,1.91,0,0,0-.83-.19c-1.65,0-2.34,2.63-2.13,5.31C92,52.52,93.83,54.29,96,55c1.92-.09,4-2.58,4-7.94V32.2c0-4.25-1-7.17-2.52-7.36L97,24.79a8.63,8.63,0,0,1,0-.91v-.53h13v.53a8.63,8.63,0,0,1,0,.91l-.44.05c-1.48.14-2.43,2.82-2.52,6.74,0,3.39,0,9,0,9,0,11.33-1.56,16.07-9.13,16.83l0,0h-.26C86.22,58.22,84.35,45.45,90.83,42.15Z"/><text class="cls-3" transform="translate(109.25 45.83)">il<tspan class="cls-4" x="24.75" y="0">l</tspan></text></g></g></svg>